<mxfile host="app.diagrams.net" modified="2024-07-04T08:36:46.713Z" agent="Mozilla/5.0 (Windows NT 10.0; Win64; x64) AppleWebKit/537.36 (KHTML, like Gecko) Chrome/126.0.0.0 Safari/537.36" etag="QzRf7KupRR7uA5dE0oEX" version="24.2.5" type="device">
  <diagram name="第 1 页" id="F3Xru53Kpnl1BwfYtlgx">
    <mxGraphModel dx="1877" dy="618" grid="1" gridSize="10" guides="1" tooltips="1" connect="1" arrows="1" fold="1" page="1" pageScale="1" pageWidth="827" pageHeight="1169" math="0" shadow="0">
      <root>
        <mxCell id="0" />
        <mxCell id="1" parent="0" />
        <mxCell id="7i2ZvnCS0LDgRbsH4VU_-8" style="edgeStyle=orthogonalEdgeStyle;rounded=0;orthogonalLoop=1;jettySize=auto;html=1;entryX=0.5;entryY=0;entryDx=0;entryDy=0;startArrow=classic;startFill=1;" parent="1" source="7i2ZvnCS0LDgRbsH4VU_-5" target="7i2ZvnCS0LDgRbsH4VU_-7" edge="1">
          <mxGeometry relative="1" as="geometry" />
        </mxCell>
        <mxCell id="7i2ZvnCS0LDgRbsH4VU_-5" value="Wireless Tx Rx&lt;div&gt;nRF24L01 &lt;br&gt;range up to (100 meters)&lt;/div&gt;" style="rounded=0;whiteSpace=wrap;html=1;" parent="1" vertex="1">
          <mxGeometry x="294" y="40" width="120" height="60" as="geometry" />
        </mxCell>
        <mxCell id="7i2ZvnCS0LDgRbsH4VU_-6" value="Remote&lt;br&gt;Controller&amp;nbsp;" style="rounded=0;whiteSpace=wrap;html=1;" parent="1" vertex="1">
          <mxGeometry x="700" y="40" width="120" height="60" as="geometry" />
        </mxCell>
        <mxCell id="7i2ZvnCS0LDgRbsH4VU_-31" style="edgeStyle=orthogonalEdgeStyle;rounded=0;orthogonalLoop=1;jettySize=auto;html=1;entryX=1;entryY=0.5;entryDx=0;entryDy=0;" parent="1" source="JuAvGMvPe-BZ7LzUvZdu-1" target="7i2ZvnCS0LDgRbsH4VU_-30" edge="1">
          <mxGeometry relative="1" as="geometry" />
        </mxCell>
        <mxCell id="7i2ZvnCS0LDgRbsH4VU_-42" style="edgeStyle=orthogonalEdgeStyle;rounded=0;orthogonalLoop=1;jettySize=auto;html=1;entryX=1;entryY=0.5;entryDx=0;entryDy=0;" parent="1" source="7i2ZvnCS0LDgRbsH4VU_-7" target="7i2ZvnCS0LDgRbsH4VU_-41" edge="1">
          <mxGeometry relative="1" as="geometry">
            <Array as="points">
              <mxPoint x="260" y="250" />
              <mxPoint x="260" y="80" />
            </Array>
          </mxGeometry>
        </mxCell>
        <mxCell id="izxr2NZ0y61cS5bRJ8dU-11" style="edgeStyle=orthogonalEdgeStyle;rounded=0;orthogonalLoop=1;jettySize=auto;html=1;entryX=0;entryY=0.5;entryDx=0;entryDy=0;" parent="1" source="7i2ZvnCS0LDgRbsH4VU_-7" target="06zfM2p2942qrEPfFfKD-1" edge="1">
          <mxGeometry relative="1" as="geometry" />
        </mxCell>
        <mxCell id="izxr2NZ0y61cS5bRJ8dU-12" style="edgeStyle=orthogonalEdgeStyle;rounded=0;orthogonalLoop=1;jettySize=auto;html=1;entryX=0;entryY=0.5;entryDx=0;entryDy=0;" parent="1" source="7i2ZvnCS0LDgRbsH4VU_-7" target="izxr2NZ0y61cS5bRJ8dU-9" edge="1">
          <mxGeometry relative="1" as="geometry" />
        </mxCell>
        <mxCell id="izxr2NZ0y61cS5bRJ8dU-21" style="edgeStyle=orthogonalEdgeStyle;rounded=0;orthogonalLoop=1;jettySize=auto;html=1;entryX=1;entryY=0.5;entryDx=0;entryDy=0;" parent="1" source="7i2ZvnCS0LDgRbsH4VU_-7" target="izxr2NZ0y61cS5bRJ8dU-19" edge="1">
          <mxGeometry relative="1" as="geometry">
            <Array as="points">
              <mxPoint x="260" y="250" />
              <mxPoint x="260" y="420" />
            </Array>
          </mxGeometry>
        </mxCell>
        <mxCell id="izxr2NZ0y61cS5bRJ8dU-23" style="edgeStyle=orthogonalEdgeStyle;rounded=0;orthogonalLoop=1;jettySize=auto;html=1;entryX=0.75;entryY=1;entryDx=0;entryDy=0;fillColor=#f8cecc;strokeColor=#b85450;" parent="1" source="7i2ZvnCS0LDgRbsH4VU_-7" target="7i2ZvnCS0LDgRbsH4VU_-5" edge="1">
          <mxGeometry relative="1" as="geometry">
            <Array as="points">
              <mxPoint x="384" y="190" />
              <mxPoint x="384" y="190" />
            </Array>
          </mxGeometry>
        </mxCell>
        <mxCell id="JuAvGMvPe-BZ7LzUvZdu-12" style="edgeStyle=orthogonalEdgeStyle;rounded=0;orthogonalLoop=1;jettySize=auto;html=1;entryX=1;entryY=0.25;entryDx=0;entryDy=0;fillColor=#f8cecc;strokeColor=#b85450;" edge="1" parent="1" source="7i2ZvnCS0LDgRbsH4VU_-7" target="JuAvGMvPe-BZ7LzUvZdu-1">
          <mxGeometry relative="1" as="geometry">
            <Array as="points">
              <mxPoint x="280" y="235" />
              <mxPoint x="280" y="235" />
            </Array>
          </mxGeometry>
        </mxCell>
        <mxCell id="7i2ZvnCS0LDgRbsH4VU_-7" value="Arduino MEGA" style="whiteSpace=wrap;html=1;" parent="1" vertex="1">
          <mxGeometry x="294" y="220" width="120" height="60" as="geometry" />
        </mxCell>
        <mxCell id="7i2ZvnCS0LDgRbsH4VU_-10" value="Left properller" style="triangle;whiteSpace=wrap;html=1;align=center;" parent="1" vertex="1">
          <mxGeometry x="800" y="150" width="130" height="90" as="geometry" />
        </mxCell>
        <mxCell id="7i2ZvnCS0LDgRbsH4VU_-22" value="" style="endArrow=none;dashed=1;html=1;rounded=0;entryX=0;entryY=0.5;entryDx=0;entryDy=0;exitX=1;exitY=0.5;exitDx=0;exitDy=0;" parent="1" source="7i2ZvnCS0LDgRbsH4VU_-5" target="7i2ZvnCS0LDgRbsH4VU_-6" edge="1">
          <mxGeometry width="50" height="50" relative="1" as="geometry">
            <mxPoint x="390" y="130" as="sourcePoint" />
            <mxPoint x="440" y="80" as="targetPoint" />
          </mxGeometry>
        </mxCell>
        <mxCell id="izxr2NZ0y61cS5bRJ8dU-2" style="edgeStyle=orthogonalEdgeStyle;rounded=0;orthogonalLoop=1;jettySize=auto;html=1;entryX=0.5;entryY=1;entryDx=0;entryDy=0;strokeWidth=5;fillColor=#f8cecc;strokeColor=#b85450;" parent="1" source="7i2ZvnCS0LDgRbsH4VU_-23" target="izxr2NZ0y61cS5bRJ8dU-1" edge="1">
          <mxGeometry relative="1" as="geometry" />
        </mxCell>
        <mxCell id="7i2ZvnCS0LDgRbsH4VU_-23" value="Battery&amp;nbsp;&lt;br&gt;3S, 3.7 * 3 = 11.1 V&lt;div&gt;5300 mAh&lt;br&gt;&lt;div&gt;&lt;br&gt;&lt;/div&gt;&lt;/div&gt;" style="shape=cylinder3;whiteSpace=wrap;html=1;boundedLbl=1;backgroundOutline=1;size=15;" parent="1" vertex="1">
          <mxGeometry x="291" y="680" width="126" height="130" as="geometry" />
        </mxCell>
        <mxCell id="JuAvGMvPe-BZ7LzUvZdu-5" style="edgeStyle=orthogonalEdgeStyle;rounded=0;orthogonalLoop=1;jettySize=auto;html=1;entryX=1;entryY=0.5;entryDx=0;entryDy=0;" edge="1" parent="1" source="7i2ZvnCS0LDgRbsH4VU_-30" target="wnOGGF072oRt_V9wZp1O-1">
          <mxGeometry relative="1" as="geometry" />
        </mxCell>
        <mxCell id="JuAvGMvPe-BZ7LzUvZdu-10" value="LEFT TRACK MOTOR" style="edgeLabel;html=1;align=center;verticalAlign=middle;resizable=0;points=[];" vertex="1" connectable="0" parent="JuAvGMvPe-BZ7LzUvZdu-5">
          <mxGeometry x="0.5714" relative="1" as="geometry">
            <mxPoint as="offset" />
          </mxGeometry>
        </mxCell>
        <mxCell id="JuAvGMvPe-BZ7LzUvZdu-6" style="edgeStyle=orthogonalEdgeStyle;rounded=0;orthogonalLoop=1;jettySize=auto;html=1;entryX=1;entryY=0.5;entryDx=0;entryDy=0;" edge="1" parent="1" source="7i2ZvnCS0LDgRbsH4VU_-30" target="wnOGGF072oRt_V9wZp1O-2">
          <mxGeometry relative="1" as="geometry" />
        </mxCell>
        <mxCell id="JuAvGMvPe-BZ7LzUvZdu-11" value="RIGHT TRACK MOTOR" style="edgeLabel;html=1;align=center;verticalAlign=middle;resizable=0;points=[];" vertex="1" connectable="0" parent="JuAvGMvPe-BZ7LzUvZdu-6">
          <mxGeometry x="0.5212" y="-2" relative="1" as="geometry">
            <mxPoint as="offset" />
          </mxGeometry>
        </mxCell>
        <mxCell id="7i2ZvnCS0LDgRbsH4VU_-30" value="Track Motor Controller&lt;br&gt;12V, 3A" style="whiteSpace=wrap;html=1;" parent="1" vertex="1">
          <mxGeometry x="-90" y="220" width="120" height="60" as="geometry" />
        </mxCell>
        <mxCell id="7i2ZvnCS0LDgRbsH4VU_-44" style="edgeStyle=orthogonalEdgeStyle;rounded=0;orthogonalLoop=1;jettySize=auto;html=1;entryX=1;entryY=0.5;entryDx=0;entryDy=0;" parent="1" source="7i2ZvnCS0LDgRbsH4VU_-41" target="7i2ZvnCS0LDgRbsH4VU_-43" edge="1">
          <mxGeometry relative="1" as="geometry" />
        </mxCell>
        <mxCell id="7i2ZvnCS0LDgRbsH4VU_-41" value="Actuator controller&lt;br&gt;L298N&lt;br&gt;12V, 2A" style="rounded=0;whiteSpace=wrap;html=1;" parent="1" vertex="1">
          <mxGeometry x="70" y="50" width="120" height="60" as="geometry" />
        </mxCell>
        <mxCell id="7i2ZvnCS0LDgRbsH4VU_-43" value="Actuator" style="rounded=0;whiteSpace=wrap;html=1;" parent="1" vertex="1">
          <mxGeometry x="-160" y="50" width="120" height="60" as="geometry" />
        </mxCell>
        <mxCell id="izxr2NZ0y61cS5bRJ8dU-7" style="edgeStyle=orthogonalEdgeStyle;rounded=0;orthogonalLoop=1;jettySize=auto;html=1;entryX=0;entryY=0.5;entryDx=0;entryDy=0;" parent="1" source="06zfM2p2942qrEPfFfKD-1" target="7i2ZvnCS0LDgRbsH4VU_-10" edge="1">
          <mxGeometry relative="1" as="geometry" />
        </mxCell>
        <mxCell id="06zfM2p2942qrEPfFfKD-1" value="ESC (20A)" style="rounded=0;whiteSpace=wrap;html=1;" parent="1" vertex="1">
          <mxGeometry x="520" y="165" width="120" height="60" as="geometry" />
        </mxCell>
        <mxCell id="wnOGGF072oRt_V9wZp1O-1" value="" style="ellipse;whiteSpace=wrap;html=1;aspect=fixed;" parent="1" vertex="1">
          <mxGeometry x="-440" y="130" width="80" height="80" as="geometry" />
        </mxCell>
        <mxCell id="wnOGGF072oRt_V9wZp1O-2" value="" style="ellipse;whiteSpace=wrap;html=1;aspect=fixed;" parent="1" vertex="1">
          <mxGeometry x="-440" y="270" width="80" height="80" as="geometry" />
        </mxCell>
        <mxCell id="izxr2NZ0y61cS5bRJ8dU-3" style="edgeStyle=orthogonalEdgeStyle;rounded=0;orthogonalLoop=1;jettySize=auto;html=1;entryX=0.5;entryY=1;entryDx=0;entryDy=0;fillColor=#f8cecc;strokeColor=#b85450;strokeWidth=2;" parent="1" source="izxr2NZ0y61cS5bRJ8dU-1" target="7i2ZvnCS0LDgRbsH4VU_-7" edge="1">
          <mxGeometry relative="1" as="geometry" />
        </mxCell>
        <mxCell id="izxr2NZ0y61cS5bRJ8dU-13" style="edgeStyle=orthogonalEdgeStyle;rounded=0;orthogonalLoop=1;jettySize=auto;html=1;entryX=0.5;entryY=1;entryDx=0;entryDy=0;strokeWidth=4;fillColor=#f8cecc;strokeColor=#b85450;" parent="1" source="izxr2NZ0y61cS5bRJ8dU-1" target="06zfM2p2942qrEPfFfKD-1" edge="1">
          <mxGeometry relative="1" as="geometry">
            <Array as="points">
              <mxPoint x="680" y="520" />
              <mxPoint x="680" y="260" />
              <mxPoint x="580" y="260" />
            </Array>
          </mxGeometry>
        </mxCell>
        <mxCell id="izxr2NZ0y61cS5bRJ8dU-17" style="edgeStyle=orthogonalEdgeStyle;rounded=0;orthogonalLoop=1;jettySize=auto;html=1;entryX=0.5;entryY=1;entryDx=0;entryDy=0;strokeWidth=3;fillColor=#f8cecc;strokeColor=#b85450;" parent="1" source="izxr2NZ0y61cS5bRJ8dU-1" target="7i2ZvnCS0LDgRbsH4VU_-30" edge="1">
          <mxGeometry relative="1" as="geometry">
            <Array as="points">
              <mxPoint x="160" y="480" />
              <mxPoint x="160" y="310" />
              <mxPoint x="-30" y="310" />
            </Array>
          </mxGeometry>
        </mxCell>
        <mxCell id="izxr2NZ0y61cS5bRJ8dU-18" style="edgeStyle=orthogonalEdgeStyle;rounded=0;orthogonalLoop=1;jettySize=auto;html=1;strokeWidth=3;fillColor=#f8cecc;strokeColor=#b85450;exitX=0;exitY=0.5;exitDx=0;exitDy=0;" parent="1" source="izxr2NZ0y61cS5bRJ8dU-1" edge="1">
          <mxGeometry relative="1" as="geometry">
            <mxPoint x="310" y="500" as="sourcePoint" />
            <mxPoint x="87" y="110" as="targetPoint" />
            <Array as="points">
              <mxPoint x="87" y="500" />
            </Array>
          </mxGeometry>
        </mxCell>
        <mxCell id="izxr2NZ0y61cS5bRJ8dU-22" style="edgeStyle=orthogonalEdgeStyle;rounded=0;orthogonalLoop=1;jettySize=auto;html=1;entryX=0.5;entryY=1;entryDx=0;entryDy=0;fillColor=#f8cecc;strokeColor=#b85450;strokeWidth=2;" parent="1" source="izxr2NZ0y61cS5bRJ8dU-1" target="izxr2NZ0y61cS5bRJ8dU-19" edge="1">
          <mxGeometry relative="1" as="geometry">
            <Array as="points">
              <mxPoint x="-10" y="520" />
            </Array>
          </mxGeometry>
        </mxCell>
        <mxCell id="izxr2NZ0y61cS5bRJ8dU-1" value="PDB" style="whiteSpace=wrap;html=1;aspect=fixed;" parent="1" vertex="1">
          <mxGeometry x="314" y="460" width="80" height="80" as="geometry" />
        </mxCell>
        <mxCell id="izxr2NZ0y61cS5bRJ8dU-10" style="edgeStyle=orthogonalEdgeStyle;rounded=0;orthogonalLoop=1;jettySize=auto;html=1;entryX=0;entryY=0.5;entryDx=0;entryDy=0;" parent="1" source="izxr2NZ0y61cS5bRJ8dU-9" edge="1">
          <mxGeometry relative="1" as="geometry">
            <mxPoint x="800" y="310" as="targetPoint" />
          </mxGeometry>
        </mxCell>
        <mxCell id="izxr2NZ0y61cS5bRJ8dU-9" value="ESC (20A)" style="rounded=0;whiteSpace=wrap;html=1;" parent="1" vertex="1">
          <mxGeometry x="520" y="280" width="120" height="60" as="geometry" />
        </mxCell>
        <mxCell id="izxr2NZ0y61cS5bRJ8dU-15" style="edgeStyle=orthogonalEdgeStyle;rounded=0;orthogonalLoop=1;jettySize=auto;html=1;strokeWidth=4;fillColor=#f8cecc;strokeColor=#b85450;exitX=1;exitY=0.25;exitDx=0;exitDy=0;" parent="1" source="izxr2NZ0y61cS5bRJ8dU-1" edge="1">
          <mxGeometry relative="1" as="geometry">
            <mxPoint x="404" y="510" as="sourcePoint" />
            <mxPoint x="590" y="340" as="targetPoint" />
            <Array as="points">
              <mxPoint x="590" y="480" />
              <mxPoint x="590" y="340" />
            </Array>
          </mxGeometry>
        </mxCell>
        <mxCell id="izxr2NZ0y61cS5bRJ8dU-19" value="Water pumps&lt;div&gt;12V, 1A&lt;/div&gt;" style="whiteSpace=wrap;html=1;" parent="1" vertex="1">
          <mxGeometry x="-70" y="390" width="120" height="60" as="geometry" />
        </mxCell>
        <mxCell id="izxr2NZ0y61cS5bRJ8dU-24" value="Right propeller" style="triangle;whiteSpace=wrap;html=1;align=center;" parent="1" vertex="1">
          <mxGeometry x="800" y="270" width="130" height="90" as="geometry" />
        </mxCell>
        <mxCell id="izxr2NZ0y61cS5bRJ8dU-25" value="&lt;div&gt;Note:&amp;nbsp;&lt;/div&gt;&lt;div&gt;&lt;br&gt;&lt;/div&gt;Red color line&amp;nbsp; : Power Cable&lt;div&gt;Black color line: Signal | Control Cable&lt;/div&gt;" style="text;html=1;align=left;verticalAlign=middle;resizable=0;points=[];autosize=1;strokeColor=none;fillColor=none;" parent="1" vertex="1">
          <mxGeometry x="720" y="425" width="230" height="70" as="geometry" />
        </mxCell>
        <mxCell id="JuAvGMvPe-BZ7LzUvZdu-4" value="" style="edgeStyle=orthogonalEdgeStyle;rounded=0;orthogonalLoop=1;jettySize=auto;html=1;entryX=1;entryY=0.5;entryDx=0;entryDy=0;" edge="1" parent="1" source="7i2ZvnCS0LDgRbsH4VU_-7" target="JuAvGMvPe-BZ7LzUvZdu-1">
          <mxGeometry relative="1" as="geometry">
            <mxPoint x="294" y="250" as="sourcePoint" />
            <mxPoint x="-60" y="310" as="targetPoint" />
          </mxGeometry>
        </mxCell>
        <mxCell id="JuAvGMvPe-BZ7LzUvZdu-1" value="Arduino UNO" style="whiteSpace=wrap;html=1;" vertex="1" parent="1">
          <mxGeometry x="110" y="220" width="120" height="60" as="geometry" />
        </mxCell>
      </root>
    </mxGraphModel>
  </diagram>
</mxfile>
